# Blender v2.80 (sub 75) OBJ File: ''
# www.blender.org
mtllib crystal_8.mtl
o Cylinder.004_Cylinder.005
v -0.000000 0.074875 -0.431547
v 0.000000 5.116869 0.619868
v 0.382813 0.017672 -0.218061
v 0.633420 5.022218 0.973112
v 0.382813 -0.096735 0.208912
v 0.633420 4.832915 1.679599
v -0.000000 -0.153939 0.422398
v -0.000000 4.738264 2.032843
v -0.382813 -0.096735 0.208912
v -0.633420 4.832915 1.679599
v -0.382813 0.017672 -0.218061
v -0.633420 5.022218 0.973112
v 0.000000 6.694417 1.799782
v -0.000000 -0.106392 -0.223897
v 0.000000 3.363915 -2.161419
v 0.382813 -0.012986 -0.023588
v 0.633420 3.518469 -1.829978
v 0.382813 0.173825 0.377032
v 0.633420 3.827576 -1.167095
v -0.000000 0.267232 0.577341
v -0.000000 3.982130 -0.835654
v -0.382813 0.173825 0.377032
v -0.633420 3.827576 -1.167095
v -0.382813 -0.012986 -0.023588
v -0.633420 3.518469 -1.829978
v 0.000000 4.950951 -2.094444
v -0.000000 0.457546 -0.532979
v 0.000000 2.483400 1.431151
v 0.382813 0.288237 -0.390912
v 0.633420 2.203254 1.666222
v 0.382813 -0.050381 -0.106778
v 0.633420 1.642961 2.136363
v -0.000000 -0.219690 0.035290
v -0.000000 1.362815 2.371433
v -0.382813 -0.050381 -0.106778
v -0.633420 1.642961 2.136363
v -0.382813 0.288237 -0.390912
v -0.633420 2.203254 1.666222
v 0.000000 2.564874 2.666120
v 0.209329 -0.036755 -0.393101
v -1.761290 3.376456 -0.682476
v 0.540855 0.154651 -0.172083
v -1.212733 3.693166 -0.316771
v 0.540855 0.154651 0.269951
v -1.212732 3.693166 0.414639
v 0.209329 -0.036756 0.490968
v -1.761290 3.376456 0.780343
v -0.122197 -0.228162 0.269951
v -2.309847 3.059746 0.414639
v -0.122197 -0.228162 -0.172084
v -2.309848 3.059747 -0.316771
v -2.462261 4.590573 0.048934
v 0.135336 0.231672 -0.465294
v -2.247347 1.098898 -0.754669
v 0.266266 0.591399 -0.244277
v -2.030705 1.694117 -0.388964
v 0.266266 0.591398 0.197758
v -2.030705 1.694117 0.342446
v 0.135336 0.231671 0.418775
v -2.247348 1.098898 0.708150
v 0.004407 -0.128055 0.197758
v -2.463989 0.503678 0.342446
v 0.004406 -0.128055 -0.244277
v -2.463990 0.503678 -0.388964
v -3.094894 1.407379 -0.023260
v -0.152398 0.083221 -0.422269
v 1.656362 2.666398 -0.711645
v 0.161185 -0.136351 -0.201252
v 2.175229 2.303084 -0.345940
v 0.161184 -0.136352 0.240782
v 2.175229 2.303083 0.385470
v -0.152398 0.083221 0.461800
v 1.656363 2.666399 0.751175
v -0.465980 0.302794 0.240782
v 1.137495 3.029712 0.385470
v -0.465980 0.302794 -0.201252
v 1.137495 3.029713 -0.345940
v 2.299758 3.585263 0.019765
v 0.426979 0.241038 -0.081331
v 2.326934 0.808231 0.895770
v 0.381370 -0.128731 0.156546
v 2.251467 0.196395 1.289371
v 0.127829 -0.128731 0.518639
v 1.831948 0.196395 1.888507
v -0.080102 0.241038 0.642857
v 1.487895 0.808231 2.094042
v -0.034493 0.610807 0.404980
v 1.563362 1.420068 1.700441
v 0.219048 0.610807 0.042887
v 1.982882 1.420068 1.101305
v 2.524209 1.009988 1.926790
v 0.031502 -0.227668 0.071150
v 0.031502 0.967284 -2.577317
v 0.414316 -0.036262 0.181659
v 0.664922 1.283993 -2.394465
v 0.414315 0.346551 0.402677
v 0.664922 1.917413 -2.028760
v 0.031502 0.537957 0.513185
v 0.031502 2.234123 -1.845908
v -0.351311 0.346551 0.402677
v -0.601917 1.917413 -2.028760
v -0.351311 -0.036262 0.181659
v -0.601917 1.283993 -2.394465
v 0.031502 2.114904 -3.102235
vt 1.000000 0.500000
vt 1.000000 1.000000
vt 0.833333 1.000000
vt 0.833333 0.500000
vt 0.666667 1.000000
vt 0.666667 0.500000
vt 0.500000 1.000000
vt 0.500000 0.500000
vt 0.333333 1.000000
vt 0.333333 0.500000
vt 0.333333 1.000000
vt 0.166667 1.000000
vt 0.166667 0.500000
vt -0.000000 1.000000
vt -0.000000 0.500000
vt 0.750000 0.490000
vt 0.957846 0.370000
vt 0.957846 0.130000
vt 0.750000 0.010000
vt 0.542154 0.130000
vt 0.542154 0.370000
vt 0.666667 1.000000
vt 0.166667 1.000000
vt 0.833333 1.000000
vt 0.500000 1.000000
vt -0.000000 1.000000
vt 1.000000 0.500000
vt 1.000000 1.000000
vt 0.833333 1.000000
vt 0.833333 0.500000
vt 0.666667 1.000000
vt 0.666667 0.500000
vt 0.500000 1.000000
vt 0.500000 0.500000
vt 0.333333 1.000000
vt 0.333333 0.500000
vt 0.333333 1.000000
vt 0.166667 1.000000
vt 0.166667 0.500000
vt -0.000000 1.000000
vt -0.000000 0.500000
vt 0.750000 0.490000
vt 0.957846 0.370000
vt 0.957846 0.130000
vt 0.750000 0.010000
vt 0.542154 0.130000
vt 0.542154 0.370000
vt 0.666667 1.000000
vt 0.166667 1.000000
vt 0.833333 1.000000
vt 0.500000 1.000000
vt -0.000000 1.000000
vt 1.000000 0.500000
vt 1.000000 1.000000
vt 0.833333 1.000000
vt 0.833333 0.500000
vt 0.666667 1.000000
vt 0.666667 0.500000
vt 0.500000 1.000000
vt 0.500000 0.500000
vt 0.333333 1.000000
vt 0.333333 0.500000
vt 0.333333 1.000000
vt 0.166667 1.000000
vt 0.166667 0.500000
vt -0.000000 1.000000
vt -0.000000 0.500000
vt 0.750000 0.490000
vt 0.957846 0.370000
vt 0.957846 0.130000
vt 0.750000 0.010000
vt 0.542154 0.130000
vt 0.542154 0.370000
vt 0.666667 1.000000
vt 0.166667 1.000000
vt 0.833333 1.000000
vt 0.500000 1.000000
vt -0.000000 1.000000
vt 1.000000 0.500000
vt 1.000000 1.000000
vt 0.833333 1.000000
vt 0.833333 0.500000
vt 0.666667 1.000000
vt 0.666667 0.500000
vt 0.500000 1.000000
vt 0.500000 0.500000
vt 0.333333 1.000000
vt 0.333333 0.500000
vt 0.333333 1.000000
vt 0.166667 1.000000
vt 0.166667 0.500000
vt -0.000000 1.000000
vt -0.000000 0.500000
vt 0.750000 0.490000
vt 0.957846 0.370000
vt 0.957846 0.130000
vt 0.750000 0.010000
vt 0.542154 0.130000
vt 0.542154 0.370000
vt 0.666667 1.000000
vt 0.166667 1.000000
vt 0.833333 1.000000
vt 0.500000 1.000000
vt -0.000000 1.000000
vt 1.000000 0.500000
vt 1.000000 1.000000
vt 0.833333 1.000000
vt 0.833333 0.500000
vt 0.666667 1.000000
vt 0.666667 0.500000
vt 0.500000 1.000000
vt 0.500000 0.500000
vt 0.333333 1.000000
vt 0.333333 0.500000
vt 0.333333 1.000000
vt 0.166667 1.000000
vt 0.166667 0.500000
vt -0.000000 1.000000
vt -0.000000 0.500000
vt 0.750000 0.490000
vt 0.957846 0.370000
vt 0.957846 0.130000
vt 0.750000 0.010000
vt 0.542154 0.130000
vt 0.542154 0.370000
vt 0.666667 1.000000
vt 0.166667 1.000000
vt 0.833333 1.000000
vt 0.500000 1.000000
vt -0.000000 1.000000
vt 1.000000 0.500000
vt 1.000000 1.000000
vt 0.833333 1.000000
vt 0.833333 0.500000
vt 0.666667 1.000000
vt 0.666667 0.500000
vt 0.500000 1.000000
vt 0.500000 0.500000
vt 0.333333 1.000000
vt 0.333333 0.500000
vt 0.333333 1.000000
vt 0.166667 1.000000
vt 0.166667 0.500000
vt -0.000000 1.000000
vt -0.000000 0.500000
vt 0.750000 0.490000
vt 0.957846 0.370000
vt 0.957846 0.130000
vt 0.750000 0.010000
vt 0.542154 0.130000
vt 0.542154 0.370000
vt 0.666667 1.000000
vt 0.166667 1.000000
vt 0.833333 1.000000
vt 0.500000 1.000000
vt -0.000000 1.000000
vt 1.000000 0.500000
vt 1.000000 1.000000
vt 0.833333 1.000000
vt 0.833333 0.500000
vt 0.666667 1.000000
vt 0.666667 0.500000
vt 0.500000 1.000000
vt 0.500000 0.500000
vt 0.333333 1.000000
vt 0.333333 0.500000
vt 0.333333 1.000000
vt 0.166667 1.000000
vt 0.166667 0.500000
vt -0.000000 1.000000
vt -0.000000 0.500000
vt 0.750000 0.490000
vt 0.957846 0.370000
vt 0.957846 0.130000
vt 0.750000 0.010000
vt 0.542154 0.130000
vt 0.542154 0.370000
vt 0.666667 1.000000
vt 0.166667 1.000000
vt 0.833333 1.000000
vt 0.500000 1.000000
vt -0.000000 1.000000
vt 1.000000 0.500000
vt 1.000000 1.000000
vt 0.833333 1.000000
vt 0.833333 0.500000
vt 0.666667 1.000000
vt 0.666667 0.500000
vt 0.500000 1.000000
vt 0.500000 0.500000
vt 0.333333 1.000000
vt 0.333333 0.500000
vt 0.333333 1.000000
vt 0.166667 1.000000
vt 0.166667 0.500000
vt -0.000000 1.000000
vt -0.000000 0.500000
vt 0.750000 0.490000
vt 0.957846 0.370000
vt 0.957846 0.130000
vt 0.750000 0.010000
vt 0.542154 0.130000
vt 0.542154 0.370000
vt 0.666667 1.000000
vt 0.166667 1.000000
vt 0.833333 1.000000
vt 0.500000 1.000000
vt -0.000000 1.000000
vn 0.4994 0.1769 -0.8481
vn 0.9988 -0.0470 -0.0126
vn 0.4994 -0.2709 0.8229
vn -0.4994 -0.2709 0.8229
vn -0.4725 0.1043 0.8752
vn -0.9988 -0.0470 -0.0126
vn -0.4994 0.1769 -0.8481
vn 0.0000 -0.9659 -0.2588
vn 0.9449 0.3161 0.0847
vn -0.9449 0.3161 0.0847
vn 0.4725 0.5279 -0.7058
vn 0.4725 0.1043 0.8752
vn -0.4725 0.5279 -0.7058
vn 0.4990 -0.4225 -0.7567
vn 0.9980 -0.0572 0.0267
vn 0.4990 0.3081 0.8100
vn -0.4990 0.3081 0.8100
vn -0.4561 0.7052 0.5428
vn -0.9980 -0.0572 0.0267
vn -0.4990 -0.4225 -0.7567
vn 0.0000 -0.9063 0.4226
vn 0.9122 0.3714 -0.1732
vn -0.9122 0.3714 -0.1732
vn 0.4561 0.0375 -0.8891
vn 0.4561 0.7052 0.5428
vn -0.4561 0.0375 -0.8891
vn 0.4980 0.6036 -0.6226
vn 0.9960 -0.0572 -0.0681
vn 0.4980 -0.7179 0.4863
vn -0.4980 -0.7179 0.4863
vn -0.4222 -0.2158 0.8804
vn -0.9960 -0.0572 -0.0681
vn -0.4980 0.6036 -0.6226
vn 0.0000 -0.6428 -0.7660
vn 0.8444 0.3443 0.4104
vn -0.8444 0.3443 0.4104
vn 0.4222 0.9045 -0.0597
vn 0.4222 -0.2158 0.8804
vn -0.4222 0.9045 -0.0597
vn 0.4639 0.1945 -0.8643
vn 0.8960 0.4440 0.0000
vn 0.4639 0.1945 0.8643
vn -0.4004 -0.3045 0.8643
vn -0.6005 0.1288 0.7892
vn -0.8326 -0.5539 -0.0000
vn -0.4004 -0.3045 -0.8643
vn 0.5000 -0.8660 -0.0000
vn 0.5833 0.8122 0.0000
vn -0.9951 -0.0991 0.0000
vn 0.1887 0.5844 -0.7892
vn 0.1887 0.5844 0.7892
vn -0.6005 0.1288 -0.7892
vn 0.2626 0.4339 -0.8618
vn 0.4328 0.9015 -0.0000
vn 0.2626 0.4339 0.8618
vn -0.0778 -0.5012 0.8618
vn -0.6800 -0.1879 0.7087
vn -0.2479 -0.9688 0.0000
vn -0.0778 -0.5012 -0.8618
vn 0.9397 -0.3420 -0.0000
vn -0.2602 0.9656 0.0000
vn -0.8200 -0.5724 0.0000
vn -0.4001 0.5811 -0.7087
vn -0.4001 0.5811 0.7087
vn -0.6800 -0.1879 -0.7087
vn 0.3628 -0.3508 -0.8633
vn 0.7711 -0.6367 -0.0000
vn 0.3628 -0.3508 0.8633
vn -0.4537 0.2210 0.8633
vn -0.0746 0.6525 0.7541
vn -0.8620 0.5069 -0.0000
vn -0.4537 0.2210 -0.8633
vn -0.5736 -0.8192 -0.0000
vn 0.9953 -0.0967 -0.0000
vn -0.4313 0.9022 0.0000
vn 0.6387 0.1531 -0.7541
vn 0.6387 0.1531 0.7541
vn -0.0746 0.6525 -0.7541
vn 0.5089 -0.5092 -0.6940
vn 0.1207 -0.9891 0.0845
vn -0.4781 -0.5092 0.7156
vn -0.6887 0.4504 0.5681
vn 0.0312 0.5380 0.8423
vn -0.3005 0.9303 -0.2104
vn 0.2983 0.4504 -0.8415
vn -0.7912 -0.2588 -0.5540
vn 0.6635 -0.5864 0.4646
vn 0.3344 0.9129 0.2342
vn 0.9668 -0.2116 -0.1436
vn 0.1957 -0.2116 0.9576
vn 0.8022 0.5380 -0.2588
vn 0.4981 -0.7904 -0.3566
vn 0.9963 -0.0432 0.0748
vn 0.4981 0.7040 0.5062
vn -0.4981 0.7040 0.5062
vn -0.4257 0.9008 -0.0855
vn -0.9963 -0.0432 0.0748
vn -0.4981 -0.7904 -0.3566
vn 0.0000 -0.5000 0.8660
vn 0.8515 0.2622 -0.4542
vn -0.8515 0.2622 -0.4542
vn 0.4257 -0.3764 -0.8229
vn 0.4257 0.9008 -0.0855
vn -0.4257 -0.3764 -0.8229
usemtl Material.009
s off
f 1/1/1 2/2/1 4/3/1 3/4/1
f 3/4/2 4/3/2 6/5/2 5/6/2
f 5/6/3 6/5/3 8/7/3 7/8/3
f 7/8/4 8/7/4 10/9/4 9/10/4
f 10/9/5 8/7/5 13/11/5
f 9/10/6 10/9/6 12/12/6 11/13/6
f 11/13/7 12/12/7 2/14/7 1/15/7
f 1/16/8 3/17/8 5/18/8 7/19/8 9/20/8 11/21/8
f 6/5/9 4/3/9 13/22/9
f 12/12/10 10/9/10 13/23/10
f 4/3/11 2/2/11 13/24/11
f 8/7/12 6/5/12 13/25/12
f 2/14/13 12/12/13 13/26/13
f 14/27/14 15/28/14 17/29/14 16/30/14
f 16/30/15 17/29/15 19/31/15 18/32/15
f 18/32/16 19/31/16 21/33/16 20/34/16
f 20/34/17 21/33/17 23/35/17 22/36/17
f 23/35/18 21/33/18 26/37/18
f 22/36/19 23/35/19 25/38/19 24/39/19
f 24/39/20 25/38/20 15/40/20 14/41/20
f 14/42/21 16/43/21 18/44/21 20/45/21 22/46/21 24/47/21
f 19/31/22 17/29/22 26/48/22
f 25/38/23 23/35/23 26/49/23
f 17/29/24 15/28/24 26/50/24
f 21/33/25 19/31/25 26/51/25
f 15/40/26 25/38/26 26/52/26
f 27/53/27 28/54/27 30/55/27 29/56/27
f 29/56/28 30/55/28 32/57/28 31/58/28
f 31/58/29 32/57/29 34/59/29 33/60/29
f 33/60/30 34/59/30 36/61/30 35/62/30
f 36/61/31 34/59/31 39/63/31
f 35/62/32 36/61/32 38/64/32 37/65/32
f 37/65/33 38/64/33 28/66/33 27/67/33
f 27/68/34 29/69/34 31/70/34 33/71/34 35/72/34 37/73/34
f 32/57/35 30/55/35 39/74/35
f 38/64/36 36/61/36 39/75/36
f 30/55/37 28/54/37 39/76/37
f 34/59/38 32/57/38 39/77/38
f 28/66/39 38/64/39 39/78/39
f 40/79/40 41/80/40 43/81/40 42/82/40
f 42/82/41 43/81/41 45/83/41 44/84/41
f 44/84/42 45/83/42 47/85/42 46/86/42
f 46/86/43 47/85/43 49/87/43 48/88/43
f 49/87/44 47/85/44 52/89/44
f 48/88/45 49/87/45 51/90/45 50/91/45
f 50/91/46 51/90/46 41/92/46 40/93/46
f 40/94/47 42/95/47 44/96/47 46/97/47 48/98/47 50/99/47
f 45/83/48 43/81/48 52/100/48
f 51/90/49 49/87/49 52/101/49
f 43/81/50 41/80/50 52/102/50
f 47/85/51 45/83/51 52/103/51
f 41/92/52 51/90/52 52/104/52
f 53/105/53 54/106/53 56/107/53 55/108/53
f 55/108/54 56/107/54 58/109/54 57/110/54
f 57/110/55 58/109/55 60/111/55 59/112/55
f 59/112/56 60/111/56 62/113/56 61/114/56
f 62/113/57 60/111/57 65/115/57
f 61/114/58 62/113/58 64/116/58 63/117/58
f 63/117/59 64/116/59 54/118/59 53/119/59
f 53/120/60 55/121/60 57/122/60 59/123/60 61/124/60 63/125/60
f 58/109/61 56/107/61 65/126/61
f 64/116/62 62/113/62 65/127/62
f 56/107/63 54/106/63 65/128/63
f 60/111/64 58/109/64 65/129/64
f 54/118/65 64/116/65 65/130/65
f 66/131/66 67/132/66 69/133/66 68/134/66
f 68/134/67 69/133/67 71/135/67 70/136/67
f 70/136/68 71/135/68 73/137/68 72/138/68
f 72/138/69 73/137/69 75/139/69 74/140/69
f 75/139/70 73/137/70 78/141/70
f 74/140/71 75/139/71 77/142/71 76/143/71
f 76/143/72 77/142/72 67/144/72 66/145/72
f 66/146/73 68/147/73 70/148/73 72/149/73 74/150/73 76/151/73
f 71/135/74 69/133/74 78/152/74
f 77/142/75 75/139/75 78/153/75
f 69/133/76 67/132/76 78/154/76
f 73/137/77 71/135/77 78/155/77
f 67/144/78 77/142/78 78/156/78
f 79/157/79 80/158/79 82/159/79 81/160/79
f 81/160/80 82/159/80 84/161/80 83/162/80
f 83/162/81 84/161/81 86/163/81 85/164/81
f 85/164/82 86/163/82 88/165/82 87/166/82
f 88/165/83 86/163/83 91/167/83
f 87/166/84 88/165/84 90/168/84 89/169/84
f 89/169/85 90/168/85 80/170/85 79/171/85
f 79/172/86 81/173/86 83/174/86 85/175/86 87/176/86 89/177/86
f 84/161/87 82/159/87 91/178/87
f 90/168/88 88/165/88 91/179/88
f 82/159/89 80/158/89 91/180/89
f 86/163/90 84/161/90 91/181/90
f 80/170/91 90/168/91 91/182/91
f 92/183/92 93/184/92 95/185/92 94/186/92
f 94/186/93 95/185/93 97/187/93 96/188/93
f 96/188/94 97/187/94 99/189/94 98/190/94
f 98/190/95 99/189/95 101/191/95 100/192/95
f 101/191/96 99/189/96 104/193/96
f 100/192/97 101/191/97 103/194/97 102/195/97
f 102/195/98 103/194/98 93/196/98 92/197/98
f 92/198/99 94/199/99 96/200/99 98/201/99 100/202/99 102/203/99
f 97/187/100 95/185/100 104/204/100
f 103/194/101 101/191/101 104/205/101
f 95/185/102 93/184/102 104/206/102
f 99/189/103 97/187/103 104/207/103
f 93/196/104 103/194/104 104/208/104
